<svg xmlns="http://www.w3.org/2000/svg" width="345.00pt" height="136.00pt" viewBox="0 0 345.00 136.00" font-family="DejaVu Sans, Verdana, Arial, Helvetica, sans-serif"><rect width="100%" height="100%" fill="white"/><line x1="54.55" y1="6.00" x2="66.55" y2="6.00" stroke="#3B6FB6" stroke-width="1.30" stroke-linecap="butt"/><circle cx="60.55" cy="6.00" r="2.40" fill="#3B6FB6" stroke="#FFFFFF" stroke-width="0.8"/><text x="69.55" y="8.30" font-size="6.80" fill="#4A4F55" text-anchor="start" font-weight="normal" font-style="normal">TaskManagement</text><line x1="139.15" y1="6.00" x2="151.15" y2="6.00" stroke="#E08214" stroke-width="1.30" stroke-linecap="butt"/><rect x="143.00" y="3.85" width="4.30" height="4.30" fill="#E08214" stroke="#FFFFFF" stroke-width="0.8"/><text x="154.15" y="8.30" font-size="6.80" fill="#4A4F55" text-anchor="start" font-weight="normal" font-style="normal">UserManagement</text><line x1="223.75" y1="6.00" x2="235.75" y2="6.00" stroke="#2A9D8F" stroke-width="1.30" stroke-linecap="butt"/><path d="M 229.75 3.10 L 227.10 7.90 L 232.40 7.90 Z" fill="#2A9D8F" stroke="#FFFFFF" stroke-width="0.8" stroke-linejoin="round"/><text x="238.75" y="8.30" font-size="6.80" fill="#4A4F55" text-anchor="start" font-weight="normal" font-style="normal">Customization</text><line x1="27.00" y1="112.00" x2="103.00" y2="112.00" stroke="#E4E4E1" stroke-width="0.45" stroke-linecap="butt"/><text x="24.00" y="114.20" font-size="6.50" fill="#74746F" text-anchor="end" font-weight="normal" font-style="normal">0.00</text><line x1="27.00" y1="94.00" x2="103.00" y2="94.00" stroke="#E4E4E1" stroke-width="0.45" stroke-linecap="butt"/><text x="24.00" y="96.20" font-size="6.50" fill="#74746F" text-anchor="end" font-weight="normal" font-style="normal">0.25</text><line x1="27.00" y1="76.00" x2="103.00" y2="76.00" stroke="#E4E4E1" stroke-width="0.45" stroke-linecap="butt"/><text x="24.00" y="78.20" font-size="6.50" fill="#74746F" text-anchor="end" font-weight="normal" font-style="normal">0.50</text><line x1="27.00" y1="58.00" x2="103.00" y2="58.00" stroke="#E4E4E1" stroke-width="0.45" stroke-linecap="butt"/><text x="24.00" y="60.20" font-size="6.50" fill="#74746F" text-anchor="end" font-weight="normal" font-style="normal">0.75</text><line x1="27.00" y1="40.00" x2="103.00" y2="40.00" stroke="#E4E4E1" stroke-width="0.45" stroke-linecap="butt"/><text x="24.00" y="42.20" font-size="6.50" fill="#74746F" text-anchor="end" font-weight="normal" font-style="normal">1.00</text><line x1="27.00" y1="37.00" x2="27.00" y2="112.00" stroke="#7A7A78" stroke-width="0.55" stroke-linecap="butt"/><line x1="27.00" y1="112.00" x2="103.00" y2="112.00" stroke="#7A7A78" stroke-width="0.55" stroke-linecap="butt"/><g transform="translate(6.00,76.00) rotate(-90)"><text x="0.00" y="0.00" font-size="6.90" fill="#4A4F55" text-anchor="middle" font-weight="normal" font-style="normal">coverage</text></g><text x="5.00" y="21.00" font-size="7.60" fill="#1F2328" text-anchor="start" font-weight="bold" font-style="normal">(a) Functional</text><text x="5.00" y="30.00" font-size="6.30" fill="#74746F" text-anchor="start" font-weight="normal" font-style="normal">units: 7 / 8 / 33</text><polyline fill="none" stroke="#3B6FB6" stroke-width="1.20" stroke-linejoin="round" stroke-linecap="round" points="35.04,60.57 62.40,50.29 89.76,50.29"/><polyline fill="none" stroke="#E08214" stroke-width="1.20" stroke-linejoin="round" stroke-linecap="round" points="37.64,67.00 65.00,58.00 92.36,58.00"/><polyline fill="none" stroke="#2A9D8F" stroke-width="1.20" stroke-linejoin="round" stroke-linecap="round" points="40.24,112.00 67.60,103.27 94.96,103.27"/><circle cx="35.04" cy="60.57" r="2.40" fill="#3B6FB6" stroke="#FFFFFF" stroke-width="0.8"/><circle cx="62.40" cy="50.29" r="2.40" fill="#3B6FB6" stroke="#FFFFFF" stroke-width="0.8"/><circle cx="89.76" cy="50.29" r="2.40" fill="#3B6FB6" stroke="#FFFFFF" stroke-width="0.8"/><rect x="35.49" y="64.85" width="4.30" height="4.30" fill="#E08214" stroke="#FFFFFF" stroke-width="0.8"/><rect x="62.85" y="55.85" width="4.30" height="4.30" fill="#E08214" stroke="#FFFFFF" stroke-width="0.8"/><rect x="90.21" y="55.85" width="4.30" height="4.30" fill="#E08214" stroke="#FFFFFF" stroke-width="0.8"/><path d="M 40.24 109.10 L 37.59 113.90 L 42.89 113.90 Z" fill="#2A9D8F" stroke="#FFFFFF" stroke-width="0.8" stroke-linejoin="round"/><path d="M 67.60 100.37 L 64.95 105.17 L 70.25 105.17 Z" fill="#2A9D8F" stroke="#FFFFFF" stroke-width="0.8" stroke-linejoin="round"/><path d="M 94.96 100.37 L 92.31 105.17 L 97.61 105.17 Z" fill="#2A9D8F" stroke="#FFFFFF" stroke-width="0.8" stroke-linejoin="round"/><text x="37.64" y="120.00" font-size="6.50" fill="#4A4F55" text-anchor="middle" font-weight="bold" font-style="normal">L1</text><text x="65.00" y="120.00" font-size="6.50" fill="#4A4F55" text-anchor="middle" font-weight="bold" font-style="normal">L2</text><text x="92.36" y="120.00" font-size="6.50" fill="#4A4F55" text-anchor="middle" font-weight="bold" font-style="normal">L3</text><line x1="145.00" y1="112.00" x2="221.00" y2="112.00" stroke="#E4E4E1" stroke-width="0.45" stroke-linecap="butt"/><text x="142.00" y="114.20" font-size="6.50" fill="#74746F" text-anchor="end" font-weight="normal" font-style="normal">0.00</text><line x1="145.00" y1="94.00" x2="221.00" y2="94.00" stroke="#E4E4E1" stroke-width="0.45" stroke-linecap="butt"/><text x="142.00" y="96.20" font-size="6.50" fill="#74746F" text-anchor="end" font-weight="normal" font-style="normal">0.25</text><line x1="145.00" y1="76.00" x2="221.00" y2="76.00" stroke="#E4E4E1" stroke-width="0.45" stroke-linecap="butt"/><text x="142.00" y="78.20" font-size="6.50" fill="#74746F" text-anchor="end" font-weight="normal" font-style="normal">0.50</text><line x1="145.00" y1="58.00" x2="221.00" y2="58.00" stroke="#E4E4E1" stroke-width="0.45" stroke-linecap="butt"/><text x="142.00" y="60.20" font-size="6.50" fill="#74746F" text-anchor="end" font-weight="normal" font-style="normal">0.75</text><line x1="145.00" y1="40.00" x2="221.00" y2="40.00" stroke="#E4E4E1" stroke-width="0.45" stroke-linecap="butt"/><text x="142.00" y="42.20" font-size="6.50" fill="#74746F" text-anchor="end" font-weight="normal" font-style="normal">1.00</text><line x1="145.00" y1="37.00" x2="145.00" y2="112.00" stroke="#7A7A78" stroke-width="0.55" stroke-linecap="butt"/><line x1="145.00" y1="112.00" x2="221.00" y2="112.00" stroke="#7A7A78" stroke-width="0.55" stroke-linecap="butt"/><g transform="translate(124.00,76.00) rotate(-90)"><text x="0.00" y="0.00" font-size="6.90" fill="#4A4F55" text-anchor="middle" font-weight="normal" font-style="normal">coverage</text></g><text x="123.00" y="21.00" font-size="7.60" fill="#1F2328" text-anchor="start" font-weight="bold" font-style="normal">(b) Constraints</text><text x="123.00" y="30.00" font-size="6.30" fill="#74746F" text-anchor="start" font-weight="normal" font-style="normal">units: 15 / 8 / 2</text><polyline fill="none" stroke="#3B6FB6" stroke-width="1.20" stroke-linejoin="round" stroke-linecap="round" points="153.04,112.00 180.40,112.00 207.76,64.00"/><polyline fill="none" stroke="#E08214" stroke-width="1.20" stroke-linejoin="round" stroke-linecap="round" points="155.64,112.00 183.00,112.00 210.36,49.00"/><polyline fill="none" stroke="#2A9D8F" stroke-width="1.20" stroke-linejoin="round" stroke-linecap="round" points="158.24,112.00 185.60,112.00 212.96,40.00"/><circle cx="153.04" cy="112.00" r="2.40" fill="#3B6FB6" stroke="#FFFFFF" stroke-width="0.8"/><circle cx="180.40" cy="112.00" r="2.40" fill="#3B6FB6" stroke="#FFFFFF" stroke-width="0.8"/><circle cx="207.76" cy="64.00" r="2.40" fill="#3B6FB6" stroke="#FFFFFF" stroke-width="0.8"/><rect x="153.49" y="109.85" width="4.30" height="4.30" fill="#E08214" stroke="#FFFFFF" stroke-width="0.8"/><rect x="180.85" y="109.85" width="4.30" height="4.30" fill="#E08214" stroke="#FFFFFF" stroke-width="0.8"/><rect x="208.21" y="46.85" width="4.30" height="4.30" fill="#E08214" stroke="#FFFFFF" stroke-width="0.8"/><path d="M 158.24 109.10 L 155.59 113.90 L 160.89 113.90 Z" fill="#2A9D8F" stroke="#FFFFFF" stroke-width="0.8" stroke-linejoin="round"/><path d="M 185.60 109.10 L 182.95 113.90 L 188.25 113.90 Z" fill="#2A9D8F" stroke="#FFFFFF" stroke-width="0.8" stroke-linejoin="round"/><path d="M 212.96 37.10 L 210.31 41.90 L 215.61 41.90 Z" fill="#2A9D8F" stroke="#FFFFFF" stroke-width="0.8" stroke-linejoin="round"/><text x="155.64" y="120.00" font-size="6.50" fill="#4A4F55" text-anchor="middle" font-weight="bold" font-style="normal">L1</text><text x="183.00" y="120.00" font-size="6.50" fill="#4A4F55" text-anchor="middle" font-weight="bold" font-style="normal">L2</text><text x="210.36" y="120.00" font-size="6.50" fill="#4A4F55" text-anchor="middle" font-weight="bold" font-style="normal">L3</text><line x1="263.00" y1="112.00" x2="339.00" y2="112.00" stroke="#E4E4E1" stroke-width="0.45" stroke-linecap="butt"/><text x="260.00" y="114.20" font-size="6.50" fill="#74746F" text-anchor="end" font-weight="normal" font-style="normal">0.00</text><line x1="263.00" y1="94.00" x2="339.00" y2="94.00" stroke="#E4E4E1" stroke-width="0.45" stroke-linecap="butt"/><text x="260.00" y="96.20" font-size="6.50" fill="#74746F" text-anchor="end" font-weight="normal" font-style="normal">0.25</text><line x1="263.00" y1="76.00" x2="339.00" y2="76.00" stroke="#E4E4E1" stroke-width="0.45" stroke-linecap="butt"/><text x="260.00" y="78.20" font-size="6.50" fill="#74746F" text-anchor="end" font-weight="normal" font-style="normal">0.50</text><line x1="263.00" y1="58.00" x2="339.00" y2="58.00" stroke="#E4E4E1" stroke-width="0.45" stroke-linecap="butt"/><text x="260.00" y="60.20" font-size="6.50" fill="#74746F" text-anchor="end" font-weight="normal" font-style="normal">0.75</text><line x1="263.00" y1="40.00" x2="339.00" y2="40.00" stroke="#E4E4E1" stroke-width="0.45" stroke-linecap="butt"/><text x="260.00" y="42.20" font-size="6.50" fill="#74746F" text-anchor="end" font-weight="normal" font-style="normal">1.00</text><line x1="263.00" y1="37.00" x2="263.00" y2="112.00" stroke="#7A7A78" stroke-width="0.55" stroke-linecap="butt"/><line x1="263.00" y1="112.00" x2="339.00" y2="112.00" stroke="#7A7A78" stroke-width="0.55" stroke-linecap="butt"/><g transform="translate(242.00,76.00) rotate(-90)"><text x="0.00" y="0.00" font-size="6.90" fill="#4A4F55" text-anchor="middle" font-weight="normal" font-style="normal">coverage</text></g><text x="241.00" y="21.00" font-size="7.60" fill="#1F2328" text-anchor="start" font-weight="bold" font-style="normal">(c) NFR</text><text x="241.00" y="30.00" font-size="6.30" fill="#74746F" text-anchor="start" font-weight="normal" font-style="normal">units: 5 / 5 / 3</text><polyline fill="none" stroke="#3B6FB6" stroke-width="1.20" stroke-linejoin="round" stroke-linecap="round" points="271.04,112.00 298.40,97.60 325.76,40.00"/><polyline fill="none" stroke="#E08214" stroke-width="1.20" stroke-linejoin="round" stroke-linecap="round" points="273.64,112.00 301.00,97.60 328.36,40.00"/><polyline fill="none" stroke="#2A9D8F" stroke-width="1.20" stroke-linejoin="round" stroke-linecap="round" points="276.24,112.00 303.60,112.00 330.96,40.00"/><circle cx="271.04" cy="112.00" r="2.40" fill="#3B6FB6" stroke="#FFFFFF" stroke-width="0.8"/><circle cx="298.40" cy="97.60" r="2.40" fill="#3B6FB6" stroke="#FFFFFF" stroke-width="0.8"/><circle cx="325.76" cy="40.00" r="2.40" fill="#3B6FB6" stroke="#FFFFFF" stroke-width="0.8"/><rect x="271.49" y="109.85" width="4.30" height="4.30" fill="#E08214" stroke="#FFFFFF" stroke-width="0.8"/><rect x="298.85" y="95.45" width="4.30" height="4.30" fill="#E08214" stroke="#FFFFFF" stroke-width="0.8"/><rect x="326.21" y="37.85" width="4.30" height="4.30" fill="#E08214" stroke="#FFFFFF" stroke-width="0.8"/><path d="M 276.24 109.10 L 273.59 113.90 L 278.89 113.90 Z" fill="#2A9D8F" stroke="#FFFFFF" stroke-width="0.8" stroke-linejoin="round"/><path d="M 303.60 109.10 L 300.95 113.90 L 306.25 113.90 Z" fill="#2A9D8F" stroke="#FFFFFF" stroke-width="0.8" stroke-linejoin="round"/><path d="M 330.96 37.10 L 328.31 41.90 L 333.61 41.90 Z" fill="#2A9D8F" stroke="#FFFFFF" stroke-width="0.8" stroke-linejoin="round"/><text x="273.64" y="120.00" font-size="6.50" fill="#4A4F55" text-anchor="middle" font-weight="bold" font-style="normal">L1</text><text x="301.00" y="120.00" font-size="6.50" fill="#4A4F55" text-anchor="middle" font-weight="bold" font-style="normal">L2</text><text x="328.36" y="120.00" font-size="6.50" fill="#4A4F55" text-anchor="middle" font-weight="bold" font-style="normal">L3</text><text x="172.50" y="133.00" font-size="6.90" fill="#74746F" text-anchor="middle" font-weight="normal" font-style="normal">requirement detail level</text></svg>